<?xml version="1.0" standalone="no"?>
<!DOCTYPE svg PUBLIC "-//W3C//DTD SVG 20010904//EN"
 "http://www.w3.org/TR/2001/REC-SVG-20010904/DTD/svg10.dtd">
<svg version="1.0" xmlns="http://www.w3.org/2000/svg"
 width="375.000000pt" height="375.000000pt" viewBox="0 0 375.000000 375.000000"
 preserveAspectRatio="xMidYMid meet">
<metadata>
Created by potrace 1.14, written by Peter Selinger 2001-2017
</metadata>
<g transform="translate(0.000000,375.000000) scale(0.100000,-0.100000)"
fill="#000000" stroke="none">
<path d="M1770 3229 c-136 -16 -287 -115 -353 -231 -41 -73 -83 -227 -86 -318
-1 -30 -6 -56 -12 -58 -5 -2 -9 -14 -9 -26 0 -25 -20 -54 -82 -123 -23 -26
-38 -53 -38 -68 0 -28 40 -75 63 -75 25 0 27 -29 5 -50 -25 -23 -31 -49 -16
-67 8 -10 2 -13 -27 -13 -48 0 -99 -31 -115 -70 -44 -106 24 -300 149 -428
110 -113 223 -157 295 -114 24 14 36 17 37 9 1 -7 2 -19 3 -27 1 -8 -3 -21 -9
-29 -8 -11 -7 -13 3 -7 18 11 4 -17 -54 -105 -110 -167 -175 -341 -240 -639
-24 -113 -48 -221 -52 -240 l-8 -35 771 0 771 0 -2 110 c-4 214 -15 521 -19
568 -6 64 -21 118 -40 142 -8 11 -37 49 -64 85 -26 36 -86 108 -132 160 -63
71 -87 106 -96 140 -6 25 -21 65 -32 90 -17 37 -20 40 -16 15 l5 -30 -11 30
c-9 22 -9 30 0 33 6 2 11 8 11 13 0 6 -6 7 -12 3 -9 -5 -9 -2 1 9 12 15 11 17
-5 17 -17 0 -17 1 2 14 19 15 19 15 -1 30 -11 8 -30 16 -43 16 -13 0 -20 4
-17 10 10 16 47 12 61 -7 7 -10 14 -13 14 -7 0 20 -29 37 -55 32 -22 -5 -25
-2 -27 26 -3 66 0 204 7 273 6 70 8 74 57 124 28 28 61 75 75 105 29 63 74
241 75 294 2 133 -132 299 -298 370 -103 44 -291 66 -434 49z m-530 -1059 c-6
-11 -14 -18 -18 -16 -5 3 -14 0 -22 -5 -13 -9 -13 -10 0 -8 30 3 39 -1 45 -21
4 -11 10 -18 15 -15 13 8 35 -26 36 -57 1 -21 -3 -28 -15 -26 -10 2 -15 -4
-15 -14 2 -19 -11 -24 -20 -10 -8 14 24 53 37 45 7 -4 7 0 -1 10 -8 9 -11 21
-7 26 3 6 0 8 -8 5 -7 -2 -25 5 -38 16 -18 16 -19 20 -6 16 11 -4 16 -2 12 5
-4 6 -14 8 -22 5 -9 -4 -22 -1 -29 5 -9 7 -14 8 -14 1 0 -6 6 -12 13 -15 6 -2
9 -8 5 -12 -4 -4 -14 -2 -23 5 -14 12 -18 9 -12 -7 4 -12 30 -13 44 -1 9 7 13
7 13 0 0 -6 -5 -14 -10 -17 -15 -9 8 -36 28 -33 8 2 17 -2 19 -9 7 -19 -40 -6
-59 17 -19 24 -30 26 -22 5 4 -8 1 -15 -5 -15 -6 0 -11 6 -11 14 0 8 -4 17 -9
20 -12 8 -8 -27 4 -36 6 -4 18 -5 28 -2 16 5 17 3 8 -14 -14 -27 -37 -42 -28
-19 4 11 2 14 -9 10 -13 -5 -13 -8 2 -24 19 -21 6 -26 -16 -6 -12 10 -12 9 -1
-5 7 -9 10 -22 6 -27 -3 -6 3 -19 15 -31 22 -22 27 -35 8 -24 -7 4 -5 -2 5
-13 10 -12 15 -28 11 -39 -5 -16 -4 -16 5 -4 9 13 11 13 12 0 1 -8 1 -19 0
-23 -1 -5 3 -6 8 -2 6 3 8 11 5 19 -4 9 7 12 41 11 25 -1 45 2 45 7 0 5 -4 7
-9 3 -5 -3 -12 -1 -16 5 -3 5 1 10 9 10 9 0 16 5 16 11 0 5 -4 8 -9 5 -5 -3
-15 2 -22 11 -12 14 -11 15 9 9 12 -4 22 -3 22 2 0 11 -40 10 -58 -2 -6 -3
-18 1 -26 10 -9 8 -16 11 -16 6 0 -5 10 -16 22 -24 22 -14 21 -15 -8 -15 -29
0 -30 2 -29 41 1 23 -2 47 -8 54 -13 16 3 15 26 -2 18 -14 24 -32 7 -21 -5 3
-10 1 -10 -5 0 -7 6 -10 13 -7 6 2 11 12 11 21 -2 16 8 21 19 9 4 -3 0 -17 -8
-30 -9 -13 -11 -23 -5 -23 5 0 10 4 10 9 0 5 13 7 29 5 16 -3 32 -1 35 4 3 5
-8 8 -25 7 -18 -1 -28 3 -26 9 2 6 15 10 28 8 13 -1 20 1 14 5 -5 5 -11 17
-12 28 -1 11 0 14 3 7 3 -6 10 -10 15 -7 5 4 6 0 3 -8 -6 -17 27 -51 68 -69
15 -7 28 -16 28 -20 0 -5 5 -8 11 -8 5 0 7 5 4 10 -9 15 4 12 21 -4 20 -20 19
-21 -26 -21 -38 0 -51 8 -30 18 6 3 5 4 -2 3 -9 -2 -13 -25 -14 -72 -1 -59 2
-72 20 -87 20 -17 20 -18 1 -15 -31 5 -43 29 -40 83 1 28 0 44 -2 38 -7 -21
-22 -15 -20 7 1 12 7 18 14 16 7 -3 10 1 7 8 -3 8 -1 17 5 21 14 8 14 25 1 25
-5 0 -9 -5 -7 -11 1 -6 -3 -13 -10 -16 -7 -3 -10 5 -9 21 2 14 0 24 -4 21 -9
-6 -7 -97 3 -112 9 -14 -5 -18 -17 -6 -4 4 -22 8 -40 9 -41 3 -65 -27 -38 -48
16 -12 16 -11 2 6 -13 17 -13 19 0 14 8 -3 15 -14 15 -26 0 -11 4 -25 9 -29 4
-4 7 -3 6 2 -6 28 1 44 20 42 11 -1 18 -6 16 -12 -2 -5 -9 -9 -15 -7 -6 1 -11
-3 -11 -9 0 -6 6 -9 14 -6 8 3 20 -1 28 -10 11 -14 10 -15 -12 -9 l-25 8 23
-17 c12 -9 21 -24 20 -33 -2 -9 3 -17 10 -17 7 0 17 -7 22 -15 5 -8 12 -11 16
-8 10 11 66 -21 58 -34 -4 -6 -3 -8 4 -4 6 3 13 2 17 -4 12 -20 24 1 19 33 -3
17 -6 55 -7 82 -2 44 -5 50 -21 47 -17 -3 -18 -2 -7 12 13 15 15 15 31 1 14
-12 17 -28 15 -66 -2 -27 1 -51 6 -55 5 -3 6 3 2 13 -6 16 -5 17 11 4 16 -14
16 -16 2 -27 -9 -6 -16 -15 -16 -19 0 -4 7 -1 16 6 15 12 16 11 10 -11 -4 -14
-4 -20 1 -15 4 6 20 16 36 22 26 12 37 33 16 33 -5 0 -7 -4 -4 -10 3 -5 2 -10
-4 -10 -5 0 -11 3 -14 8 -2 4 -2 1 -1 -5 4 -14 -12 -18 -20 -5 -16 25 49 53
67 28 6 -7 7 -5 4 5 -3 9 0 22 6 29 7 7 -1 5 -16 -5 -15 -10 -30 -15 -34 -12
-3 4 8 14 26 24 37 21 39 30 9 30 -39 1 -48 3 -48 11 0 10 51 9 68 -2 14 -8 8
-87 -9 -129 -15 -36 -69 -61 -115 -54 -64 11 -140 56 -208 126 -36 38 -66 74
-66 80 0 6 -4 11 -8 11 -14 0 -74 156 -81 212 -14 107 30 178 110 178 37 0 39
-1 29 -20z m11 -100 c13 -10 19 -19 12 -20 -6 0 -15 5 -18 10 -4 6 -11 8 -16
5 -12 -8 -31 4 -24 16 9 14 20 11 46 -11z m-20 -44 c8 5 10 2 6 -8 -3 -9 0
-22 6 -29 10 -11 9 -11 -4 -1 -9 7 -23 10 -32 6 -18 -7 -29 9 -21 30 5 13 10
14 20 5 7 -6 19 -7 25 -3z m-65 -68 c-3 -13 -5 -25 -5 -28 -1 -3 -5 2 -11 10
-5 9 -5 19 2 27 15 19 18 16 14 -9z m480 -24 c-16 -11 -21 -11 -28 -1 -6 9 -8
9 -8 -2 0 -7 -6 -11 -15 -8 -8 4 -17 2 -20 -3 -3 -4 6 -7 20 -5 30 3 31 -2 8
-28 -10 -11 -12 -17 -5 -13 6 4 12 2 12 -3 0 -6 -7 -11 -16 -11 -10 0 -13 6
-9 19 3 12 0 21 -10 25 -9 3 -14 10 -11 15 4 5 0 11 -6 14 -7 3 -4 5 7 5 26
-1 76 10 83 17 3 3 8 2 11 -1 3 -3 -3 -12 -13 -20z m-181 -65 c-3 -13 0 -28 6
-36 7 -8 8 -13 1 -13 -16 0 -28 23 -26 50 1 14 -3 31 -10 39 -8 12 -8 13 2 7
7 -4 12 -2 13 6 0 7 4 3 9 -9 5 -12 7 -32 5 -44z m78 52 c4 -1 7 -6 7 -12 0
-8 -4 -8 -14 0 -11 9 -15 8 -21 -6 -7 -17 -8 -17 -14 1 -5 13 -10 16 -14 8 -4
-6 1 -19 10 -29 10 -10 16 -17 14 -16 -2 2 -10 -2 -18 -8 -11 -10 -10 -14 6
-25 13 -9 17 -22 15 -43 -4 -33 18 -53 46 -43 8 2 12 1 7 -3 -13 -15 -52 -12
-64 5 -7 10 -10 28 -8 41 3 12 -1 30 -9 38 -14 17 -15 68 -2 89 4 6 17 10 29
8 12 -3 25 -5 30 -5z m115 -8 c-1 -10 3 -35 7 -56 7 -37 7 -37 -24 -35 -38 3
-60 23 -35 32 9 4 14 13 10 21 -3 8 -1 15 4 15 6 0 10 6 10 14 0 8 6 17 13 19
6 3 13 6 14 6 1 1 1 -7 1 -16z m-404 -12 c4 -5 4 -16 1 -23 -7 -18 -65 -19
-65 -1 0 7 5 13 10 13 6 0 10 -5 10 -10 0 -6 8 -5 20 2 14 9 16 14 7 20 -9 6
-9 8 0 8 6 0 14 -4 17 -9z m316 -10 c3 -1 -2 -6 -10 -11 -8 -5 -10 -10 -4 -10
7 0 15 -7 18 -16 6 -15 4 -15 -11 -3 -49 38 -55 51 -20 45 12 -3 24 -5 27 -5z
m-132 -30 c3 -10 0 -11 -9 -5 -18 11 -41 11 -56 0 -13 -8 -19 5 -8 16 11 11
69 2 73 -11z m-22 -35 c-1 -17 -8 -31 -16 -34 -13 -3 -13 -2 0 8 13 10 13 11
-1 7 -12 -4 -16 2 -16 22 0 18 6 27 17 27 13 0 17 -8 16 -30z m122 20 c10 -6
11 -11 3 -19 -7 -7 -15 -6 -26 3 -29 24 -10 37 23 16z m-158 -16 c0 -5 -4 -10
-10 -10 -5 0 -10 5 -10 10 0 6 5 10 10 10 6 0 10 -4 10 -10z m72 -9 c9 -14 16
-17 25 -10 9 8 11 5 10 -10 -1 -12 -4 -21 -7 -21 -7 1 -60 48 -60 55 0 13 21
3 32 -14z m-154 -10 c3 -9 7 -9 17 -1 11 9 14 7 12 -9 -1 -12 -5 -21 -11 -21
-5 0 -2 -8 7 -18 11 -12 13 -22 7 -28 -6 -6 -5 -15 1 -24 9 -13 10 -12 6 2 -4
12 0 16 14 15 21 -1 24 -8 8 -24 -7 -7 0 -9 23 -8 49 4 50 4 43 15 -3 6 -1 10
5 10 7 0 10 -6 7 -12 -2 -7 0 -21 5 -30 6 -13 5 -18 -4 -18 -9 0 -9 -3 0 -12
7 -7 12 -16 12 -22 0 -5 -9 0 -20 12 -12 12 -25 22 -31 22 -6 0 -7 5 -4 10 4
6 -3 9 -17 7 -12 -2 -29 2 -36 10 -8 7 -17 11 -21 9 -4 -3 -7 9 -6 25 1 17 -3
36 -9 42 -6 7 -11 19 -11 27 0 10 -10 15 -29 15 -16 1 -31 5 -33 11 -2 6 10
10 29 9 17 -1 34 -7 36 -14z m282 9 c8 -5 13 -10 10 -11 -43 -8 -60 -2 -43 14
9 9 15 9 33 -3z m-202 -41 c-6 -4 5 -6 25 -5 20 2 37 -1 37 -5 0 -9 -14 -13
-40 -10 -13 2 -13 1 0 -8 8 -6 11 -11 5 -11 -19 1 -41 25 -42 48 -2 20 1 22
13 11 12 -9 12 -14 2 -20z m189 16 c12 0 24 -3 28 -7 4 -4 -10 -6 -31 -5 -21
2 -40 9 -42 16 -3 10 0 11 9 5 8 -4 24 -8 36 -9z m63 -1 c0 -21 -17 -25 -22
-6 -3 11 0 19 8 19 8 0 14 -6 14 -13z m50 6 c0 -5 -9 -10 -20 -10 -11 0 -20 5
-20 10 0 6 9 10 20 10 11 0 20 -4 20 -10z m708 -35 c-3 -3 -9 2 -12 12 -6 14
-5 15 5 6 7 -7 10 -15 7 -18z m-895 -12 c4 -3 3 -11 -3 -17 -5 -7 -5 -17 2
-26 8 -13 9 -12 5 2 -4 12 0 16 14 15 23 -2 24 -10 4 -27 -20 -16 -36 -2 -40
34 -3 25 5 33 18 19z m-70 -30 c-18 -17 -53 -30 -53 -18 0 7 63 45 68 40 2 -2
-5 -12 -15 -22z m987 -13 c0 -5 -2 -10 -4 -10 -3 0 -8 5 -11 10 -3 6 -1 10 4
10 6 0 11 -4 11 -10z"/>
<path d="M1276 1717 c3 -10 9 -15 12 -12 3 3 0 11 -7 18 -10 9 -11 8 -5 -6z"/>
<path d="M1635 1890 c-3 -5 -1 -10 4 -10 6 0 11 5 11 10 0 6 -2 10 -4 10 -3 0
-8 -4 -11 -10z"/>
<path d="M1617 1847 c-3 -7 3 -13 14 -13 13 0 15 3 7 13 -6 7 -12 13 -13 13
-2 0 -5 -6 -8 -13z"/>
<path d="M1410 1669 c0 -5 5 -7 10 -4 6 3 10 8 10 11 0 2 -4 4 -10 4 -5 0 -10
-5 -10 -11z"/>
</g>
</svg>
